<?xml version="1.0" encoding="utf-8"?>
<!-- Generator: Adobe Illustrator 23.0.1, SVG Export Plug-In . SVG Version: 6.00 Build 0)  -->
<svg version="1.1" id="Capa_1" xmlns="http://www.w3.org/2000/svg" xmlns:xlink="http://www.w3.org/1999/xlink" x="0px" y="0px"
	 viewBox="0 0 27.9 19.5" style="enable-background:new 0 0 27.9 19.5;" xml:space="preserve">
<style type="text/css">
	.st0{fill:#DB885E;}
</style>
<g>
	<g>
		<path class="st0" d="M2.2,1.2l10,7.9c0.5,0.4,1.1,0.5,1.7,0.5c0.6,0,1.2-0.1,1.7-0.5l10-7.9C26.5,0.5,26.3,0,25.3,0H13.9H2.6
			C1.6,0,1.4,0.5,2.2,1.2z"/>
		<path class="st0" d="M26.4,3.2l-11,8.3C15,11.9,14.5,12,13.9,12c-0.5,0-1.1-0.1-1.5-0.5l-11-8.3C0.7,2.6,0,3,0,4v13.7
			c0,1,0.8,1.9,1.9,1.9h12.1H26c1,0,1.9-0.8,1.9-1.9V4C27.9,3,27.2,2.6,26.4,3.2z"/>
	</g>
</g>
</svg>
